<svg xmlns="http://www.w3.org/2000/svg" width="1200" height="760" viewBox="0 0 1200 760">
  <defs>
    <linearGradient id="bg" x1="0" x2="1" y1="0" y2="1">
      <stop offset="0" stop-color="#111827"/>
      <stop offset="1" stop-color="#05070b"/>
    </linearGradient>
  </defs>
  <rect width="1200" height="760" fill="url(#bg)"/>
  <rect x="68" y="64" width="1064" height="632" rx="34" fill="#101722" stroke="#28364f" stroke-width="3"/>
  <g transform="translate(110 120)">
    <rect x="0" y="284" width="450" height="180" rx="18" fill="#151f2e" stroke="#32415b" stroke-width="3"/>
    <rect x="30" y="34" width="390" height="230" rx="20" fill="#0b1018" stroke="#40506a" stroke-width="4"/>
    <path d="M58 220L116 178L172 190L232 118L292 146L360 74" fill="none" stroke="#4d8dff" stroke-width="10" stroke-linecap="round" stroke-linejoin="round"/>
    <g fill="#ff6c4a">
      <rect x="74" y="194" width="24" height="48" rx="6"/>
      <rect x="128" y="164" width="24" height="78" rx="6"/>
      <rect x="182" y="178" width="24" height="64" rx="6"/>
      <rect x="236" y="132" width="24" height="110" rx="6"/>
      <rect x="290" y="150" width="24" height="92" rx="6"/>
      <rect x="344" y="96" width="24" height="146" rx="6"/>
    </g>
  </g>
  <g transform="translate(650 168)">
    <circle cx="160" cy="92" r="62" fill="#f7f9ff"/>
    <rect x="92" y="170" width="136" height="210" rx="58" fill="#f7f9ff"/>
    <rect x="38" y="226" width="150" height="28" rx="14" fill="#f7f9ff" transform="rotate(-18 113 240)"/>
    <rect x="172" y="224" width="170" height="28" rx="14" fill="#f7f9ff" transform="rotate(18 257 238)"/>
    <rect x="118" y="356" width="32" height="148" rx="16" fill="#f7f9ff"/>
    <rect x="174" y="356" width="32" height="148" rx="16" fill="#f7f9ff"/>
  </g>
  <g font-family="Arial, sans-serif" font-weight="700">
    <text x="92" y="104" fill="#ffb04d" font-size="40">VOLUME CHECK</text>
    <text x="92" y="658" fill="#f7f9ff" font-size="34">Do not trust a breakout until volume confirms it</text>
    <text x="794" y="104" fill="#7f8ca3" font-size="24">synthetic analyst scene</text>
  </g>
</svg>
