<svg xmlns="http://www.w3.org/2000/svg" width="1200" height="760" viewBox="0 0 1200 760">
  <defs>
    <linearGradient id="bg" x1="0" x2="1" y1="0" y2="1">
      <stop offset="0" stop-color="#1a2438"/>
      <stop offset="0.55" stop-color="#101622"/>
      <stop offset="1" stop-color="#070a10"/>
    </linearGradient>
    <radialGradient id="hot" cx="0.28" cy="0.18" r="0.62">
      <stop offset="0" stop-color="#ff7043" stop-opacity="0.55"/>
      <stop offset="1" stop-color="#ff7043" stop-opacity="0"/>
    </radialGradient>
  </defs>
  <rect width="1200" height="760" fill="url(#bg)"/>
  <rect width="1200" height="760" fill="url(#hot)"/>
  <g opacity="0.22" stroke="#ffffff" stroke-width="1">
    <path d="M0 120H1200M0 240H1200M0 360H1200M0 480H1200M0 600H1200"/>
    <path d="M160 0V760M320 0V760M480 0V760M640 0V760M800 0V760M960 0V760"/>
  </g>
  <g fill="#f7f9ff" opacity="0.9">
    <circle cx="210" cy="438" r="54"/>
    <circle cx="360" cy="384" r="48"/>
    <circle cx="514" cy="452" r="62"/>
    <circle cx="694" cy="362" r="50"/>
    <circle cx="852" cy="430" r="58"/>
    <circle cx="1010" cy="382" r="46"/>
  </g>
  <g stroke="#f7f9ff" stroke-width="20" stroke-linecap="round" opacity="0.92">
    <path d="M210 500v92M170 552h80"/>
    <path d="M360 440v90M325 492h70"/>
    <path d="M514 520v104M468 582h92"/>
    <path d="M694 420v92M652 472h84"/>
    <path d="M852 498v98M806 556h92"/>
    <path d="M1010 436v92M974 488h72"/>
  </g>
  <path d="M112 222C210 176 296 204 382 160C492 104 604 144 702 112C822 74 946 102 1092 52" fill="none" stroke="#ff6c4a" stroke-width="18" stroke-linecap="round"/>
  <path d="M965 72l128-20-72 108" fill="none" stroke="#ff6c4a" stroke-width="18" stroke-linecap="round" stroke-linejoin="round"/>
  <g font-family="Arial, sans-serif" font-weight="700">
    <text x="74" y="92" fill="#ffb04d" font-size="44">MARKET HEAT</text>
    <text x="74" y="148" fill="#f7f9ff" font-size="28">Price narrative gets louder before risk is visible</text>
    <text x="820" y="692" fill="#7f8ca3" font-size="26">synthetic asset / no external photo</text>
  </g>
</svg>
